PathFileType	4	(X/Y/Z)	 2.6Hz3min.trc
DataRate	CameraRate	NumFrames	NumMarkers	Units	OrigDataRate	OrigDataStartFrame	OrigNumFrames
200	200	9	43	m	200	501	1000
Frame#	Time	C7			LSH			RSH			MAN			RASI			LASI			HIPR			HIPL			RPSI			LPSI			COX			RTHI1			RTHI2			RTHI3			RTHI4			RLKN			RMKN			RSHA1			RSHA2			RSHA3			RSHA4			RLMAL			RMMAL			RHEEL			RMET5			RMET1			RTOE			LTHI1			LTHI2			LTHI3			LTHI4			LLKN			LMKN			LSHA1			LSHA2			LSHA3			LSHA4			LLMAL			LMMAL			LHEEL			LMET5			LMET1			LTOE			
		X1	Y1	Z1	X2	Y2	Z2	X3	Y3	Z3	X4	Y4	Z4	X5	Y5	Z5	X6	Y6	Z6	X7	Y7	Z7	X8	Y8	Z8	X9	Y9	Z9	X10	Y10	Z10	X11	Y11	Z11	X12	Y12	Z12	X13	Y13	Z13	X14	Y14	Z14	X15	Y15	Z15	X16	Y16	Z16	X17	Y17	Z17	X18	Y18	Z18	X19	Y19	Z19	X20	Y20	Z20	X21	Y21	Z21	X22	Y22	Z22	X23	Y23	Z23	X24	Y24	Z24	X25	Y25	Z25	X26	Y26	Z26	X27	Y27	Z27	X28	Y28	Z28	X29	Y29	Z29	X30	Y30	Z30	X31	Y31	Z31	X32	Y32	Z32	X33	Y33	Z33	X34	Y34	Z34	X35	Y35	Z35	X36	Y36	Z36	X37	Y37	Z37	X38	Y38	Z38	X39	Y39	Z39	X40	Y40	Z40	X41	Y41	Z41	X42	Y42	Z42	X43	Y43	Z43	
501	2.5050	-0.262771	1.509515	-0.483143	-0.233168	1.513564	-0.670955	-0.193216	1.492127	-0.309461	-0.140539	1.449609	-0.494644	-0.145044	1.027327	-0.399770	-0.150019	1.034054	-0.617367	-0.192848	1.071995	-0.363862	-0.215782	1.076208	-0.642971	-0.294636	1.069102	-0.440464	-0.294518	1.073473	-0.553198	-0.298206	1.072509	-0.499047	-0.231198	0.829765	-0.317056	-0.229544	0.768459	-0.314898	-0.157979	0.778211	-0.322621	-0.166936	0.837245	-0.325051	-0.199692	0.520513	-0.327444	-0.193137	0.501900	-0.427172	-0.312159	0.353678	-0.320546	-0.322548	0.313065	-0.331533	-0.265189	0.300761	-0.314177	-0.257648	0.340124	-0.308427	-0.317720	0.156429	-0.327084	-0.295849	0.162534	-0.404956	-0.369432	0.152247	-0.370748	-0.248796	0.050362	-0.308194	-0.206977	0.047436	-0.378257	-0.183451	0.042255	-0.375353	-0.244880	0.808350	-0.693505	-0.243988	0.748603	-0.696415	-0.170920	0.752227	-0.695299	-0.180641	0.813490	-0.693197	-0.221701	0.522359	-0.690148	-0.226735	0.507687	-0.585283	-0.323338	0.332067	-0.708746	-0.333492	0.292554	-0.703297	-0.272578	0.282249	-0.705428	-0.269554	0.325809	-0.710367	-0.322871	0.161268	-0.707464	-0.322850	0.162180	-0.630381	-0.382758	0.154919	-0.674811	-0.246670	0.049528	-0.706735	-0.223378	0.047376	-0.634484	-0.202663	0.039298	-0.637962	
502	2.5100	-0.262437	1.505558	-0.483305	-0.232452	1.509499	-0.671227	-0.192676	1.488039	-0.309459	-0.140235	1.445248	-0.494748	-0.145504	1.023375	-0.399886	-0.150255	1.030046	-0.617475	-0.193287	1.068016	-0.363971	-0.216025	1.072128	-0.643137	-0.295080	1.064978	-0.440682	-0.294821	1.069359	-0.553412	-0.298591	1.068386	-0.499271	-0.230970	0.825470	-0.317247	-0.229040	0.764163	-0.315135	-0.157518	0.774240	-0.322854	-0.166744	0.833246	-0.325246	-0.198072	0.516265	-0.327496	-0.192073	0.497741	-0.427246	-0.311760	0.350187	-0.320216	-0.322558	0.309657	-0.331276	-0.265155	0.296869	-0.314351	-0.257242	0.336181	-0.308628	-0.319184	0.153231	-0.327055	-0.297845	0.159389	-0.405241	-0.371413	0.148704	-0.370365	-0.249509	0.047583	-0.308528	-0.206551	0.045360	-0.378704	-0.182686	0.039486	-0.376797	-0.244817	0.804096	-0.693720	-0.243720	0.744363	-0.696646	-0.170665	0.748232	-0.695543	-0.180590	0.809463	-0.693401	-0.220178	0.518253	-0.690796	-0.225583	0.503527	-0.585919	-0.322957	0.328439	-0.709862	-0.333459	0.289037	-0.704307	-0.272654	0.278249	-0.705896	-0.269236	0.321786	-0.711041	-0.324314	0.157872	-0.708183	-0.324579	0.158928	-0.631072	-0.384420	0.151442	-0.675910	-0.247506	0.046438	-0.707599	-0.223467	0.045438	-0.634414	-0.202651	0.037637	-0.636704	
503	2.5150	-0.262128	1.501385	-0.483470	-0.231710	1.505254	-0.671490	-0.192132	1.483786	-0.309499	-0.139928	1.440573	-0.494852	-0.145981	1.019212	-0.399986	-0.150497	1.025821	-0.617566	-0.193753	1.063784	-0.364041	-0.216262	1.067793	-0.643325	-0.295533	1.060647	-0.440888	-0.295148	1.065046	-0.553595	-0.298992	1.064058	-0.499474	-0.230717	0.820938	-0.317426	-0.228501	0.759645	-0.315363	-0.157019	0.770060	-0.323062	-0.166529	0.829028	-0.325408	-0.196402	0.511752	-0.327511	-0.191046	0.493351	-0.427286	-0.311521	0.346532	-0.319825	-0.322800	0.306151	-0.330913	-0.265353	0.292770	-0.314536	-0.257005	0.332033	-0.308838	-0.321006	0.150024	-0.326919	-0.300296	0.156220	-0.405519	-0.373819	0.144823	-0.369860	-0.250058	0.045219	-0.308308	-0.205810	0.043916	-0.378775	-0.181368	0.037117	-0.377906	-0.244791	0.799631	-0.693967	-0.243481	0.739906	-0.696914	-0.170442	0.744034	-0.695825	-0.180577	0.805228	-0.693646	-0.218531	0.513911	-0.691530	-0.224344	0.499120	-0.586657	-0.322877	0.324708	-0.711154	-0.333802	0.285467	-0.705411	-0.273145	0.274064	-0.706391	-0.269226	0.317544	-0.711812	-0.326370	0.154465	-0.708930	-0.327029	0.155673	-0.631831	-0.386711	0.147582	-0.677138	-0.247909	0.044162	-0.708676	-0.223365	0.044479	-0.634621	-0.202319	0.036927	-0.635964	
504	2.5200	-0.261848	1.497011	-0.483627	-0.230940	1.500851	-0.671745	-0.191584	1.479379	-0.309609	-0.139663	1.435673	-0.494964	-0.146469	1.014856	-0.400062	-0.150752	1.021394	-0.617643	-0.194260	1.059305	-0.364066	-0.216514	1.063224	-0.643537	-0.295993	1.056113	-0.441076	-0.295498	1.060547	-0.553738	-0.299408	1.059530	-0.499648	-0.230439	0.816194	-0.317592	-0.227921	0.754918	-0.315581	-0.156485	0.765693	-0.323248	-0.166292	0.824625	-0.325538	-0.194681	0.506988	-0.327482	-0.190020	0.488735	-0.427251	-0.311491	0.342756	-0.319409	-0.323316	0.302594	-0.330472	-0.265837	0.288509	-0.314730	-0.256997	0.327738	-0.309043	-0.323219	0.146774	-0.326878	-0.303244	0.153016	-0.405775	-0.376623	0.140747	-0.369262	-0.250489	0.043414	-0.307750	-0.205050	0.043283	-0.378559	-0.179942	0.035498	-0.378276	-0.244781	0.794964	-0.694241	-0.243245	0.735253	-0.697226	-0.170227	0.739651	-0.696158	-0.180586	0.800808	-0.693933	-0.216747	0.509326	-0.692326	-0.222979	0.494465	-0.587506	-0.323163	0.320913	-0.712571	-0.334585	0.281905	-0.706577	-0.274114	0.269748	-0.706905	-0.269584	0.313118	-0.712655	-0.328986	0.151111	-0.709675	-0.330227	0.152484	-0.632672	-0.389546	0.143522	-0.678551	-0.248257	0.042474	-0.709672	-0.223127	0.044435	-0.634868	-0.201745	0.036870	-0.635075	
505	2.5250	-0.261583	1.492452	-0.483782	-0.230147	1.496306	-0.671984	-0.191039	1.474847	-0.309783	-0.139424	1.430573	-0.495077	-0.146959	1.010325	-0.400104	-0.151019	1.016788	-0.617713	-0.194814	1.054584	-0.364044	-0.216784	1.058440	-0.643768	-0.296451	1.051386	-0.441253	-0.295878	1.055860	-0.553837	-0.299834	1.054806	-0.499790	-0.230143	0.811262	-0.317743	-0.227307	0.750015	-0.315786	-0.155919	0.761166	-0.323400	-0.166037	0.820053	-0.325636	-0.192928	0.501995	-0.327400	-0.188944	0.483914	-0.427116	-0.311684	0.338921	-0.318979	-0.324104	0.299023	-0.330000	-0.266635	0.284140	-0.314898	-0.257251	0.323304	-0.309198	-0.325780	0.143525	-0.326889	-0.306611	0.149762	-0.405990	-0.379734	0.136621	-0.368578	-0.251003	0.042113	-0.307129	-0.204704	0.043163	-0.377967	-0.178793	0.034431	-0.378323	-0.244770	0.790111	-0.694541	-0.242986	0.730411	-0.697588	-0.169992	0.735112	-0.696557	-0.180596	0.796227	-0.694263	-0.214845	0.504513	-0.693165	-0.221446	0.489562	-0.588469	-0.323777	0.317126	-0.714040	-0.335778	0.278400	-0.707762	-0.275519	0.265355	-0.707452	-0.270295	0.308587	-0.713557	-0.331938	0.147834	-0.710416	-0.333887	0.149259	-0.633760	-0.392744	0.139479	-0.680116	-0.248779	0.041612	-0.710656	-0.222944	0.044514	-0.635533	-0.201414	0.036701	-0.634626	
506	2.5300	-0.261318	1.487737	-0.483939	-0.229334	1.491639	-0.672211	-0.190502	1.470207	-0.310011	-0.139196	1.425297	-0.495191	-0.147440	1.005639	-0.400110	-0.151304	1.012022	-0.617783	-0.195417	1.049638	-0.363972	-0.217080	1.053451	-0.644011	-0.296898	1.046471	-0.441416	-0.296291	1.050991	-0.553888	-0.300264	1.049889	-0.499899	-0.229839	0.806189	-0.317874	-0.226670	0.744952	-0.315977	-0.155332	0.756512	-0.323516	-0.165778	0.815344	-0.325692	-0.191168	0.496824	-0.327265	-0.187791	0.478931	-0.426863	-0.312082	0.335052	-0.318545	-0.325121	0.295455	-0.329506	-0.267695	0.279706	-0.315028	-0.257738	0.318778	-0.309300	-0.328578	0.140327	-0.326872	-0.310247	0.146477	-0.406160	-0.383000	0.132543	-0.367841	-0.251862	0.041029	-0.306323	-0.205163	0.043093	-0.377383	-0.178588	0.033747	-0.378141	-0.244737	0.785085	-0.694871	-0.242675	0.725398	-0.698000	-0.169706	0.730442	-0.697032	-0.180588	0.791508	-0.694648	-0.212866	0.499504	-0.694038	-0.219745	0.484452	-0.589535	-0.324622	0.313369	-0.715531	-0.337241	0.274944	-0.708959	-0.277210	0.260942	-0.708048	-0.271244	0.304005	-0.714498	-0.335030	0.144664	-0.711145	-0.337751	0.145970	-0.635097	-0.396125	0.135560	-0.681737	-0.249589	0.041097	-0.711606	-0.223699	0.044405	-0.636276	-0.202007	0.036628	-0.635257	
507	2.5350	-0.261050	1.482901	-0.484096	-0.228511	1.486871	-0.672421	-0.189981	1.465485	-0.310275	-0.138970	1.419873	-0.495302	-0.147896	1.000816	-0.400077	-0.151608	1.007113	-0.617863	-0.196071	1.044476	-0.363855	-0.217402	1.048272	-0.644271	-0.297327	1.041378	-0.441571	-0.296735	1.045943	-0.553889	-0.300689	1.044788	-0.499976	-0.229547	0.800996	-0.317981	-0.226030	0.739775	-0.316138	-0.154747	0.751757	-0.323585	-0.165527	0.810527	-0.325708	-0.189445	0.491542	-0.327082	-0.186557	0.473828	-0.426493	-0.312624	0.331160	-0.318106	-0.326280	0.291892	-0.328977	-0.268939	0.275278	-0.315103	-0.258405	0.314235	-0.309308	-0.331509	0.137174	-0.326798	-0.313991	0.143206	-0.406290	-0.386267	0.128480	-0.367110	-0.253078	0.039967	-0.305568	-0.206216	0.043179	-0.376969	-0.179140	0.033693	-0.377599	-0.244665	0.779903	-0.695226	-0.242287	0.720223	-0.698455	-0.169347	0.725668	-0.697589	-0.180550	0.786670	-0.695087	-0.210872	0.494350	-0.694941	-0.217919	0.479181	-0.590706	-0.325510	0.309631	-0.717051	-0.338781	0.271492	-0.710192	-0.278983	0.256534	-0.708681	-0.272276	0.299397	-0.715471	-0.338113	0.141563	-0.711859	-0.341630	0.142733	-0.636425	-0.399491	0.131754	-0.683350	-0.250793	0.040321	-0.712168	-0.225064	0.044362	-0.636671	-0.203065	0.036537	-0.635770	
508	2.5400	-0.260774	1.477986	-0.484253	-0.227691	1.482029	-0.672610	-0.189487	1.460714	-0.310548	-0.138739	1.414330	-0.495404	-0.148313	0.995870	-0.400001	-0.151926	1.002080	-0.617959	-0.196765	1.039124	-0.363698	-0.217763	1.042928	-0.644545	-0.297733	1.036126	-0.441713	-0.297191	1.040721	-0.553869	-0.301102	1.039510	-0.500025	-0.229281	0.795727	-0.318053	-0.225407	0.734512	-0.316257	-0.154184	0.746929	-0.323594	-0.165304	0.805636	-0.325677	-0.187809	0.486238	-0.326858	-0.185281	0.468665	-0.426019	-0.313243	0.327289	-0.317591	-0.327483	0.288333	-0.328387	-0.270248	0.270913	-0.315072	-0.259174	0.309736	-0.309168	-0.334430	0.133978	-0.326714	-0.317662	0.139915	-0.406346	-0.389468	0.124509	-0.366372	-0.254492	0.038896	-0.305095	-0.207446	0.043320	-0.376670	-0.180091	0.033975	-0.377189	-0.244549	0.774587	-0.695614	-0.241812	0.714921	-0.698962	-0.168903	0.720816	-0.698232	-0.180474	0.781743	-0.695580	-0.208936	0.489113	-0.695872	-0.216040	0.473811	-0.591960	-0.326273	0.305880	-0.718556	-0.340202	0.267999	-0.711438	-0.280630	0.252133	-0.709330	-0.273218	0.294793	-0.716453	-0.341041	0.138426	-0.712554	-0.345297	0.139493	-0.637713	-0.402678	0.127991	-0.684896	-0.252185	0.039456	-0.712597	-0.226212	0.044237	-0.636837	-0.203975	0.036437	-0.635800	
509	2.5450	-0.260478	1.473031	-0.484421	-0.226893	1.477138	-0.672774	-0.189036	1.455930	-0.310812	-0.138502	1.408691	-0.495492	-0.148685	0.990824	-0.399888	-0.152262	0.996953	-0.618080	-0.197479	1.033609	-0.363508	-0.218152	1.037440	-0.644828	-0.298116	1.030730	-0.441846	-0.297659	1.035331	-0.553833	-0.301494	1.034067	-0.500043	-0.229061	0.790403	-0.318078	-0.224823	0.729203	-0.316315	-0.153662	0.742055	-0.323528	-0.165129	0.800694	-0.325592	-0.186322	0.480995	-0.326592	-0.184036	0.463507	-0.425475	-0.313859	0.323441	-0.316965	-0.328636	0.284757	-0.327723	-0.271520	0.266629	-0.314916	-0.259950	0.305283	-0.308886	-0.337217	0.130693	-0.326553	-0.321083	0.136629	-0.406371	-0.392492	0.120557	-0.365663	-0.255925	0.037726	-0.304663	-0.208483	0.043380	-0.376402	-0.180884	0.034203	-0.377248	-0.244398	0.769168	-0.696057	-0.241265	0.709519	-0.699532	-0.168396	0.715911	-0.698932	-0.180372	0.776751	-0.696122	-0.207122	0.483867	-0.696838	-0.214218	0.468429	-0.593263	-0.326772	0.302096	-0.720046	-0.341361	0.264416	-0.712685	-0.282003	0.247726	-0.709964	-0.273946	0.290197	-0.717424	-0.343698	0.135154	-0.713234	-0.348505	0.136138	-0.638943	-0.405590	0.124173	-0.686254	-0.253292	0.038760	-0.713189	-0.226998	0.044073	-0.637035	-0.204632	0.036386	-0.635994	
